<?xml version="1.0" encoding="UTF-8"?>
<!DOCTYPE svg PUBLIC "-//W3C//DTD SVG 1.1//EN" "http://www.w3.org/Graphics/SVG/1.1/DTD/svg11.dtd">
<!-- Creator: CorelDRAW X8 -->
<svg xmlns="http://www.w3.org/2000/svg" xml:space="preserve" width="210mm" height="297mm" version="1.1" style="shape-rendering:geometricPrecision; text-rendering:geometricPrecision; image-rendering:optimizeQuality; fill-rule:evenodd; clip-rule:evenodd"
viewBox="0 0 21000 29700"
 xmlns:xlink="http://www.w3.org/1999/xlink">
 <defs>
  <style type="text/css">
   <![CDATA[
    .fil2 {fill:#154C79}
    .fil1 {fill:#2591B7}
    .fil0 {fill:#FFF9EC}
   ]]>
  </style>
 </defs>
 <g id="Layer_x0020_1">
  <metadata id="CorelCorpID_0Corel-Layer"/>
  <g id="_2738963153648">
   <path class="fil0" d="M13603 15260l1340 801c470,281 625,895 344,1364l0 0c-280,470 -894,625 -1364,344l-2261 -1350 1941 -1159z"/>
   <path class="fil1" d="M9419 12762l2243 1340 -3267 1951c-293,175 -463,480 -482,799l0 -3231c0,-80 10,-158 28,-232 22,-98 60,-193 114,-283l0 0c281,-470 894,-625 1364,-344z"/>
   <path class="fil2" d="M9416 17761l5469 -3267c161,-82 301,-208 400,-374l0 0c129,-216 166,-462 123,-692 -21,-114 -62,-226 -124,-331l0 0c-94,-157 -226,-279 -377,-361l-5490 -3280c-470,-280 -1084,-125 -1364,344l0 0c-281,470 -126,1084 344,1365l4091 2443 -4093 2445c-469,281 -624,894 -344,1364l0 0c281,470 895,625 1365,344z"/>
  </g>
 </g>
</svg>
